<?xml version="1.0" encoding="utf-8"?>
<svg viewBox="0 0 551.89 551.89" fill="#000000" xmlns="http://www.w3.org/2000/svg">
  <g transform="matrix(1, 0, 0, 1, 36.714077, 4.598215)">
    <g>
      <path d="M 0 441.402 C 0 389.214 42.307 346.906 94.496 346.905 C 106.911 346.905 118.75 349.322 129.61 353.674 L 129.61 15.988 L 188.995 15.988 C 188.995 15.988 189.025 35.266 188.995 134.753 L 188.995 441.328 L 188.992 441.328 C 188.992 441.352 188.995 441.381 188.995 441.405 C 188.995 493.593 146.687 535.901 94.499 535.901 C 42.311 535.901 0 493.59 0 441.402 Z"/>
      <ellipse style="stroke: rgb(0, 0, 0); fill: rgb(255, 255, 255);" cx="96.788" cy="440.014" rx="46.34" ry="46.75"/>
    </g>
  </g>
  <ellipse style="stroke: rgb(0, 0, 0);" cx="294.402" cy="383.41" rx="24.34" ry="24.34"/>
</svg>