<?xml version="1.0" encoding="utf-8"?>
<svg viewBox="0 0 551.89 551.89" fill="#000000" xmlns="http://www.w3.org/2000/svg">
  <g transform="matrix(1, 0, 0, 1, 36.714077, 4.598215)">
    <g>
      <path d="M 94.499 535.901 C 146.687 535.901 188.995 493.593 188.995 441.405 C 188.995 441.381 188.992 441.352 188.992 441.328 L 188.995 441.328 L 188.995 134.753 L 394.935 134.974 L 394.935 353.895 C 384.075 349.543 372.236 347.126 359.822 347.126 C 307.634 347.126 265.326 389.434 265.326 441.622 C 265.326 493.81 307.631 536.121 359.819 536.121 C 412.007 536.121 454.315 493.813 454.315 441.625 C 454.315 441.601 454.311 441.572 454.311 441.548 L 454.315 441.548 L 454.315 134.974 L 454.315 16.209 L 394.932 16.209 L 188.995 15.988 L 129.61 15.988 L 129.61 134.753 L 129.61 353.674 C 118.75 349.322 106.911 346.905 94.496 346.905 C 42.307 346.906 0 389.214 0 441.402 C 0 493.59 42.311 535.901 94.499 535.901 Z"/>
    </g>
  </g>
</svg>