<?xml version="1.0" encoding="utf-8"?>
<svg viewBox="0 0 551.9 551.9" xmlns="http://www.w3.org/2000/svg">
  <defs>
    <linearGradient id="linearGradient3790" y2="661.35" gradientUnits="userSpaceOnUse" x2="540.24" gradientTransform="matrix(1.102482, 0, 0, 0.992165, -519.136953, -256.436066)" y1="451.83" x1="623.37">
      <stop id="stop3015-2" stop-opacity=".82639" offset="0"/>
      <stop id="stop3017-3" offset="1"/>
    </linearGradient>
  </defs>
  <path id="path2986-1" stroke-linejoin="round" d="M 201.937 200.372 C 201.937 223.595 150.328 258.429 150.328 304.877 C 150.328 322.293 189.036 374.544 214.84 403.574 C 201.937 397.769 189.036 391.963 169.682 391.963 C 130.974 391.963 118.073 420.991 118.073 438.407 C 118.073 450.02 130.974 461.63 137.426 473.242 C 98.718 450.02 72.914 426.797 72.914 403.574 C 72.914 345.517 116.976 365.835 149.231 354.225 C 116.976 325.195 85.817 281.652 85.817 264.236 C 85.817 252.624 124.524 211.984 137.426 182.956 L 137.426 165.538 C 137.426 148.122 124.524 124.899 118.073 107.481 C 143.877 136.511 201.937 188.763 201.937 200.374 L 201.937 200.372 Z" fill-rule="evenodd" stroke="#000" stroke-linecap="round" stroke-width="4.703" fill="url(#linearGradient3790)" style=""/>
</svg>